<svg xmlns="http://www.w3.org/2000/svg" width="19" height="18" viewBox="0 0 19 18" fill="none"><path d="M17.6568 8.39834L9.46485 0.212315C9.40586 0.153215 9.3358 0.106328 9.25868 0.0743369C9.18155 0.0423457 9.09887 0.0258789 9.01537 0.0258789C8.93188 0.0258789 8.8492 0.0423457 8.77207 0.0743369C8.69494 0.106328 8.62488 0.153215 8.5659 0.212315L0.3739 8.39834C0.135241 8.637 0 8.96118 0 9.29928C0 10.0013 0.570795 10.5721 1.27285 10.5721H2.13601V16.4133C2.13601 16.7653 2.42041 17.0498 2.77243 17.0498H7.74252V10.5948H9.97001V17.0498H15.2583C15.6103 17.0498 15.8947 16.7653 15.8947 16.4133V10.5721H16.7579C17.096 10.5721 17.4202 10.4389 17.6588 10.1982C18.1541 9.70102 18.1541 8.89555 17.6568 8.39834Z" fill="#1A1A1A"></path></svg>